<svg width="324" height="66" viewBox="0 0 324 66" fill="none" xmlns="http://www.w3.org/2000/svg">
<path fill-rule="evenodd" clip-rule="evenodd" d="M16 0C7.16344 0 0 7.16344 0 16V50C0 58.8366 7.16345 66 16 66H304C307.418 66 310.585 64.9283 313.185 63.1026C313.217 63.1626 313.262 63.2161 313.32 63.2583C316.375 65.5001 320.599 65.9275 323.507 65.9998C323.94 66.0106 324.16 65.4703 323.865 65.1438C321.805 62.8634 320.553 60.762 319.814 58.5359V52.4462C319.937 51.6487 320 50.8318 320 50V16C320 7.16344 312.837 0 304 0H16Z" fill="#EFECFB"/>
</svg>
