<svg width="78" height="79" viewBox="0 0 78 79" fill="none" xmlns="http://www.w3.org/2000/svg">
<path fill-rule="evenodd" clip-rule="evenodd" d="M39 6.5C43.0547 6.5 46.4766 8.79688 48.2344 12.1719L49.4062 14.375L51.7969 13.625C55.4297 12.5 59.4609 13.3203 62.3437 16.1562C65.2031 19.0391 66 23.0703 64.875 26.7031L64.125 29.0937L66.3516 30.2656C69.7031 32.0234 72 35.4453 72 39.5C72 43.5547 69.7031 46.9766 66.3516 48.7344L64.125 49.9062L64.875 52.2969C66 55.9297 65.2031 59.9609 62.3437 62.8437C59.4609 65.7031 55.4297 66.5 51.7969 65.375L49.4062 64.625L48.2344 66.8516C46.4766 70.2031 43.0547 72.5 39 72.5C34.9453 72.5 31.5234 70.2031 29.7656 66.8516L28.5937 64.625L26.2031 65.375C22.5703 66.5 18.5391 65.7031 15.6562 62.8437C12.7969 59.9609 12 55.9297 13.125 52.2969L13.875 49.9062L11.6719 48.7344C8.29688 46.9766 6 43.5547 6 39.5C6 35.4453 8.29688 32.0234 11.6719 30.2656L13.875 29.0937L13.125 26.7031C12 23.0703 12.7969 19.0156 15.6562 16.1562C18.5391 13.2969 22.5703 12.5 26.2031 13.625L28.5937 14.375L29.7656 12.1719C31.5234 8.79688 34.9453 6.5 39 6.5ZM33 47.2578L54.8672 25.3906L59.1328 29.6094L33 55.7422L18.8906 41.6094L23.1094 37.3906L33 47.2578Z" fill="url(#paint0_linear_237_270)"/>
<path fill-rule="evenodd" clip-rule="evenodd" d="M25.875 7.8125C28.8516 3.57031 33.4219 0.5 39 0.5C44.5781 0.5 49.1484 3.57031 52.125 7.8125C57.2109 6.92188 62.6484 7.97656 66.5625 11.9141V11.9375C70.5234 15.875 71.5781 21.2891 70.6875 26.375C74.9297 29.3516 78 33.9219 78 39.5C78 45.0781 74.9297 49.6484 70.6875 52.625C71.5781 57.7344 70.5 63.1484 66.5625 67.0625C62.625 71.0234 57.2109 72.0781 52.125 71.1875C49.1484 75.4297 44.5781 78.5 39 78.5C33.4219 78.5 28.8516 75.4297 25.875 71.1875C20.7656 72.0781 15.3516 71 11.4375 67.0625C7.47656 63.125 6.42188 57.7109 7.3125 52.625C3.07031 49.6484 0 45.0781 0 39.5C0 33.9219 3.07031 29.3516 7.3125 26.375C6.42188 21.2891 7.47656 15.8516 11.4141 11.9375H11.4375V11.9141C15.3516 7.97656 20.7891 6.92188 25.875 7.8125ZM48.2344 12.1719C46.4766 8.79688 43.0547 6.5 39 6.5C34.9453 6.5 31.5234 8.79688 29.7656 12.1719L28.5937 14.375L26.2031 13.625C22.5703 12.5 18.5391 13.2969 15.6562 16.1562C12.7969 19.0156 12 23.0703 13.125 26.7031L13.875 29.0937L11.6719 30.2656C8.29688 32.0234 6 35.4453 6 39.5C6 43.5547 8.29688 46.9766 11.6719 48.7344L13.875 49.9062L13.125 52.2969C12 55.9297 12.7969 59.9609 15.6562 62.8437C18.5391 65.7031 22.5703 66.5 26.2031 65.375L28.5937 64.625L29.7656 66.8516C31.5234 70.2031 34.9453 72.5 39 72.5C43.0547 72.5 46.4766 70.2031 48.2344 66.8516L49.4062 64.625L51.7969 65.375C55.4297 66.5 59.4609 65.7031 62.3437 62.8437C65.2031 59.9609 66 55.9297 64.875 52.2969L64.125 49.9062L66.3516 48.7344C69.7031 46.9766 72 43.5547 72 39.5C72 35.4453 69.7031 32.0234 66.3516 30.2656L64.125 29.0937L64.875 26.7031C66 23.0703 65.2031 19.0391 62.3437 16.1562C59.4609 13.3203 55.4297 12.5 51.7969 13.625L49.4062 14.375L48.2344 12.1719Z" fill="url(#paint1_linear_237_270)"/>
<defs>
<linearGradient id="paint0_linear_237_270" x1="0" y1="39.5" x2="78" y2="39.5" gradientUnits="userSpaceOnUse">
<stop stop-color="#8453D4"/>
<stop offset="0.2" stop-color="#8656D5"/>
<stop offset="0.4" stop-color="#8657D6"/>
<stop offset="0.6" stop-color="#8B61D9"/>
<stop offset="0.8" stop-color="#8F68DC"/>
<stop offset="1" stop-color="#9472E0"/>
</linearGradient>
<linearGradient id="paint1_linear_237_270" x1="0" y1="39.5" x2="78" y2="39.5" gradientUnits="userSpaceOnUse">
<stop stop-color="#8453D4"/>
<stop offset="0.2" stop-color="#8656D5"/>
<stop offset="0.4" stop-color="#8657D6"/>
<stop offset="0.6" stop-color="#8B61D9"/>
<stop offset="0.8" stop-color="#8F68DC"/>
<stop offset="1" stop-color="#9472E0"/>
</linearGradient>
</defs>
</svg>
