<svg width="68" height="30" viewBox="0 0 68 30" fill="none" xmlns="http://www.w3.org/2000/svg">
    <path fill-rule="evenodd" clip-rule="evenodd" d="M19.0224 3.18309L16.2538 0.729561L14.7296 0.80391L0.914444 16.5242L0.692383 17.744L2.95676 21.4777L19.0224 3.18309Z" fill="#DAD8DF"/>
    <path fill-rule="evenodd" clip-rule="evenodd" d="M33.6656 23.5293C36.522 23.5293 38.8928 22.4884 40.4471 20.5855L38.0046 18.3248C36.9083 19.619 35.5182 20.2742 33.8737 20.2742C30.8091 20.2742 28.6164 18.118 28.6164 14.993C28.6164 11.868 30.8068 9.7119 33.8737 9.7119C35.5182 9.7119 36.9083 10.381 38.0046 11.645L40.4471 9.3843C38.8928 7.49536 36.5244 6.45447 33.6956 6.45447C28.5725 6.45447 24.7677 10.0232 24.7677 14.9907C24.7677 19.9582 28.5725 23.527 33.6656 23.527V23.5293ZM43.0075 23.5293H46.8123V6.45447H43.0075V23.5293ZM58.6592 23.5293C63.8263 23.5293 67.6473 19.9303 67.6473 14.993C67.6473 10.0558 63.8263 6.45679 58.6592 6.45679C53.4921 6.45679 49.6711 10.0999 49.6711 14.993C49.6711 19.8862 53.4759 23.5293 58.6592 23.5293ZM58.6592 20.2718C55.7287 20.2718 53.5221 18.1297 53.5221 14.9907C53.5221 11.8518 55.7287 9.70958 58.6592 9.70958C61.5897 9.70958 63.7962 11.8657 63.7962 14.9907C63.7962 18.1157 61.5897 20.2718 58.6592 20.2718Z" fill="#DAD8DF"/>
    <path fill-rule="evenodd" clip-rule="evenodd" d="M20.2205 1.18959L19.0525 0H15.9578L15.0557 0.432156L14.1537 1.45911C14.2878 1.32435 14.4798 1.23606 14.6856 1.23606C15.0997 1.23606 15.4258 1.56366 15.4258 1.97955V11.8401L20.2228 15.7807V1.18959H20.2205ZM15.4235 28.0507V30L20.2205 26.013V24.1101L15.4235 28.0507Z" fill="#DAD8DF"/>
    <path fill-rule="evenodd" clip-rule="evenodd" d="M0.352264 17.6557V20.8086L1.52263 21.9842H18.8905V17.1654H1.99676C1.59662 17.1654 1.25663 16.8239 1.25663 16.4219C1.25663 16.2291 1.33065 16.0502 1.43473 15.9317L0.634436 16.8378L0.352264 17.6557Z" fill="#DAD8DF"/>
    <path fill-rule="evenodd" clip-rule="evenodd" d="M22.6791 19.9442L15.4234 13.9963V25.9085L19.0524 22.9205L22.6791 19.9442Z" fill="#DAD8DF"/>
    <path d="M1.52034 21.9842C2.1667 21.9842 2.69067 21.4579 2.69067 20.8086C2.69067 20.1593 2.1667 19.6329 1.52034 19.6329C0.873971 19.6329 0.349976 20.1593 0.349976 20.8086C0.349976 21.4579 0.873971 21.9842 1.52034 21.9842Z" fill="#DAD8DF"/>
    <path d="M19.0524 2.3513C19.6987 2.3513 20.2227 1.82494 20.2227 1.17565C20.2227 0.526357 19.6988 0 19.0525 0C18.4061 0 17.882 0.526357 17.882 1.17565C17.882 1.82494 18.406 2.3513 19.0524 2.3513Z" fill="#DAD8DF"/>
    <path fill-rule="evenodd" clip-rule="evenodd" d="M15.9578 0C16.4759 0 16.906 0.341543 17.0679 0.803903H14.8475C14.9955 0.343866 15.4397 0 15.9578 0Z" fill="#DAD8DF"/>
    <path fill-rule="evenodd" clip-rule="evenodd" d="M0.94439 18.6362C0.588198 18.4271 0.352264 18.0414 0.352264 17.6092C0.352264 17.1771 0.588198 16.7914 0.94439 16.5823V18.6362Z" fill="#DAD8DF"/>
</svg>
